<svg width="58" height="17" viewBox="0 0 58 17" fill="none" xmlns="http://www.w3.org/2000/svg">
<mask id="mask0_6_11787" style="mask-type:luminance" maskUnits="userSpaceOnUse" x="0" y="0" width="17" height="17">
<path d="M16.7795 0H0.220459V17H16.7795V0Z" fill="white"/>
</mask>
<g mask="url(#mask0_6_11787)">
<path d="M6.31036 6.91355C6.21442 9.61332 6.25415 12.3237 6.31132 14.8501C6.34524 15.9858 7.1447 16.6564 8.45001 16.6399H8.58665C8.60118 16.6399 8.61475 16.6399 8.62929 16.6399C9.91037 16.6399 10.6924 15.9732 10.7263 14.8491C10.7844 12.3422 10.8242 9.6453 10.7273 6.91355C10.6866 5.65864 9.55957 5.21191 8.51881 5.21094C7.47903 5.21094 6.35299 5.65864 6.31036 6.91258V6.91355Z" fill="black"/>
<path d="M2.24528 4.85328H0.873106C0.63472 4.85231 0.439941 5.04612 0.439941 5.28547V16.5662C0.439941 16.8045 0.633751 16.9993 0.873106 16.9993H2.24528C3.59128 16.9993 4.68631 15.9043 4.68631 14.5583V7.29527C4.68631 5.94927 3.59128 4.85425 2.24528 4.85425V4.85328Z" fill="black"/>
<path d="M16.3454 0H0.653623C0.414269 0 0.220459 0.19381 0.220459 0.433164V1.43225C0.220459 2.77826 1.31548 3.87328 2.66149 3.87328H4.75754C4.76626 3.87231 4.77983 3.87231 4.79921 3.87231C4.81084 3.87231 4.82634 3.87231 4.84475 3.87134H4.85057H4.85638C4.89127 3.87328 4.92712 3.87328 4.96298 3.87328C4.97751 3.87328 4.99883 3.87328 5.02306 3.87231H5.12481C5.14322 3.87328 5.16745 3.87328 5.19846 3.87134H5.20427H5.21008C5.23819 3.87231 5.26532 3.87328 5.29342 3.87231C5.30893 3.87231 5.32831 3.87231 5.3535 3.87038H5.35932H5.36513C5.40196 3.87134 5.43006 3.87231 5.46204 3.87231C5.47463 3.87231 5.4882 3.87231 5.50564 3.87134H5.51146H5.51727C5.55216 3.87328 5.58704 3.87328 5.62387 3.87328C5.64034 3.87328 5.65972 3.87328 5.68298 3.87134H5.68879H5.69461C5.72562 3.87231 5.75856 3.87425 5.79054 3.87328C5.81186 3.87328 5.83609 3.87328 5.86516 3.87134H5.87097H5.87776C5.90198 3.87231 5.92815 3.87135 5.95141 3.87231C5.96691 3.87231 5.98435 3.87231 6.00373 3.87134H6.00761H6.01439C6.05025 3.87231 6.0832 3.87328 6.11808 3.87328C6.13456 3.87328 6.15394 3.87328 6.17429 3.87134H6.1801H6.18591C6.21692 3.87231 6.2489 3.87328 6.27991 3.87328C6.3022 3.87328 6.3274 3.87328 6.35744 3.87134H6.36325H6.36906C6.39329 3.87231 6.41849 3.87135 6.44271 3.87231C6.46016 3.87231 6.48244 3.87231 6.50667 3.87038H6.51248H6.51927C6.55512 3.87134 6.58032 3.87135 6.60648 3.87231C6.62199 3.87231 6.6404 3.87231 6.66075 3.87134C6.70629 3.87231 6.74118 3.87328 6.7751 3.87328C6.79254 3.87328 6.81192 3.87328 6.83324 3.87134H6.84002H6.84681C6.87782 3.87231 6.90689 3.87328 6.9379 3.87328C6.95534 3.87328 6.97472 3.87328 6.99604 3.87134H7.00185H7.00767C7.03965 3.87231 7.07066 3.87328 7.1007 3.87328C7.12298 3.87328 7.15012 3.87328 7.17725 3.87134H7.18307H7.18888C7.21311 3.87231 7.2383 3.87328 7.26156 3.87231C7.279 3.87231 7.29741 3.87231 7.31873 3.87134H7.32455H7.33036C7.36428 3.87328 7.39432 3.87328 7.42533 3.87328C7.45052 3.87328 7.47959 3.87328 7.50963 3.87134H7.51545H7.52126C7.54452 3.87231 7.56778 3.87328 7.5891 3.87231C7.60945 3.87231 7.63367 3.87231 7.65887 3.87038H7.66468H7.6705C7.70732 3.87134 7.73155 3.87231 7.75868 3.87231C7.77612 3.87231 7.79453 3.87231 7.81488 3.87134H7.8207H7.82651C7.85849 3.87328 7.89047 3.87425 7.91954 3.87328C7.94183 3.87328 7.96606 3.87328 7.99319 3.87134H7.999H8.00482C8.0368 3.87231 8.06393 3.87328 8.08912 3.87328C8.11238 3.87328 8.13467 3.87328 8.15986 3.87134H8.16568H8.17149C8.20347 3.87231 8.22964 3.87328 8.25483 3.87328C8.27615 3.87328 8.29844 3.87328 8.32267 3.87134H8.32848H8.33429C8.36627 3.87231 8.39244 3.87328 8.4186 3.87328C8.44089 3.87328 8.46318 3.87328 8.4874 3.87134H8.49322H8.49903C8.53198 3.87231 8.55717 3.87328 8.58431 3.87328C8.61047 3.87328 8.63761 3.87328 8.66474 3.87134H8.74129C8.76552 3.87231 8.78975 3.87231 8.81591 3.87038H8.82172H8.82754C8.86436 3.87134 8.88762 3.87231 8.91281 3.87231C8.93413 3.87231 8.95836 3.87231 8.98162 3.87038H8.98743H9.00487C9.03007 3.87134 9.05236 3.87231 9.07465 3.87231C9.095 3.87231 9.11535 3.87231 9.13763 3.87134H9.14345H9.15411C9.18318 3.87328 9.21031 3.87328 9.23648 3.87328C9.26167 3.87328 9.28881 3.87328 9.31594 3.87134H9.32175H9.32757C9.35567 3.87231 9.3828 3.87328 9.40703 3.87328C9.43126 3.87328 9.45451 3.87328 9.47874 3.87134H9.48455H9.49037C9.52428 3.87231 9.54657 3.87425 9.56789 3.87328C9.58824 3.87328 9.61247 3.87328 9.63379 3.87231H9.6396H9.64541C9.67449 3.87425 9.70259 3.87425 9.72778 3.87425C9.76364 3.87425 9.80046 3.87328 9.83922 3.87038H9.89252C9.92062 3.87038 9.94776 3.87038 9.97683 3.86844H9.98264H9.98846C10.0175 3.86941 10.0408 3.87038 10.0621 3.87038C10.0873 3.87038 10.1125 3.87038 10.1396 3.86844H10.1454H10.1513C10.1803 3.86941 10.2036 3.87038 10.2249 3.87038C10.2482 3.87038 10.2724 3.87037 10.2976 3.86941H10.3034H10.3092C10.3383 3.87134 10.3635 3.87038 10.3867 3.87134C10.4129 3.87134 10.44 3.87134 10.4672 3.86941H10.473H10.4798C10.5098 3.87037 10.5331 3.87134 10.5544 3.87134C10.5805 3.87134 10.6077 3.87134 10.6348 3.86941H10.6406H10.6464C10.6813 3.87037 10.7007 3.87134 10.7211 3.87134C10.7472 3.87134 10.7753 3.87134 10.8025 3.86941H10.8083H10.8141C10.8461 3.87037 10.8674 3.87231 10.8858 3.87134C10.912 3.87134 10.9391 3.87134 10.9662 3.86941H10.972H10.9905C11.0127 3.86941 11.0312 3.87038 11.0486 3.87134C11.0806 3.87134 11.1126 3.87134 11.1455 3.86941H11.1513H11.1571C11.1755 3.86941 11.192 3.86941 11.2085 3.86941C11.2376 3.86941 11.2686 3.86941 11.2986 3.86747H11.3044H11.3102C11.3412 3.86844 11.3616 3.87037 11.379 3.86941C11.4071 3.86941 11.4362 3.86941 11.4663 3.86747H11.4721H11.4905C11.5099 3.86747 11.5254 3.86941 11.5409 3.86941C11.5651 3.86941 11.5913 3.86941 11.6165 3.86844H11.6223H11.6281C11.6581 3.87038 11.6824 3.87134 11.7027 3.87038C11.7337 3.87038 11.7638 3.87038 11.7967 3.86844H11.8025H11.82C11.8422 3.86844 11.8597 3.87038 11.8742 3.87038C11.9033 3.87038 11.9314 3.87038 11.9614 3.86844H11.9673H11.9895C12.0099 3.86844 12.0254 3.87037 12.038 3.86941C12.0709 3.86941 12.1058 3.86941 12.1388 3.86747H12.1446H12.1504C12.1698 3.86844 12.1882 3.86941 12.2008 3.86844C12.226 3.86844 12.2531 3.86844 12.2793 3.86747L12.3849 3.86359V3.87038L14.3385 3.87231C15.6845 3.87231 16.7795 2.77729 16.7795 1.43128V0.433164C16.7795 0.194779 16.5857 0 16.3464 0H16.3454Z" fill="black"/>
<path d="M16.1657 4.85327H14.7936C13.4476 4.85327 12.3525 5.9483 12.3525 7.2943V14.5573C12.3525 15.9033 13.4476 16.9983 14.7936 16.9983H16.1657C16.4041 16.9983 16.5989 16.8045 16.5989 16.5652V5.28644C16.5989 5.04805 16.4051 4.85327 16.1657 4.85327Z" fill="black"/>
</g>
<path d="M22.5995 13H20.9615L24.3675 3.718H26.3305L29.7235 13H28.0725L27.1755 10.478H23.4965L22.5995 13ZM23.9385 9.217H26.7335L25.3555 5.148H25.3165L23.9385 9.217ZM35.3968 6.279H36.9568V12.35C36.9568 14.547 35.4098 15.522 33.6548 15.522C31.8608 15.522 30.6128 14.586 30.4438 13.208H31.9258C32.0558 14.027 32.7058 14.339 33.6548 14.339C34.7078 14.339 35.3968 13.78 35.3968 12.519V11.7H35.3838C35.0978 12.415 34.4868 13.013 33.2778 13.013C31.4318 13.013 30.1578 11.635 30.1578 9.542C30.1578 7.462 31.4058 6.11 33.2778 6.11C34.4608 6.11 35.1368 6.734 35.3838 7.332H35.3968V6.279ZM31.6528 9.542C31.6528 10.738 32.2768 11.791 33.5898 11.791C35.0068 11.791 35.5138 10.543 35.5138 9.542C35.5138 8.567 34.8638 7.319 33.5898 7.319C32.3158 7.319 31.6528 8.372 31.6528 9.542ZM41.6142 13.182C39.6252 13.182 38.1432 11.752 38.1432 9.646C38.1432 7.54 39.6252 6.097 41.6142 6.097C43.5902 6.097 45.0722 7.54 45.0722 9.646C45.0722 11.752 43.5902 13.182 41.6142 13.182ZM39.6122 9.646C39.6122 10.92 40.4052 11.96 41.6142 11.96C42.8102 11.96 43.6032 10.92 43.6032 9.646C43.6032 8.359 42.8102 7.319 41.6142 7.319C40.4052 7.319 39.6122 8.359 39.6122 9.646ZM47.7472 6.279V7.527C48.0982 6.591 48.8002 6.227 49.7622 6.214V7.644C49.6842 7.644 49.2942 7.644 49.0862 7.709C48.4232 7.839 47.7732 8.19 47.7732 9.932V13H46.2652V6.279H47.7472ZM50.5045 8.333C50.6735 7.267 51.5705 6.084 53.3255 6.084C55.5485 6.084 56.1595 7.423 56.1595 8.866V11.453C56.1595 11.96 56.1855 12.61 56.2635 13H54.7295C54.7035 12.74 54.6905 12.48 54.6905 12.207V11.895H54.6775C54.4565 12.441 53.8845 13.169 52.5455 13.169C51.0245 13.169 50.1795 12.233 50.1795 11.167C50.1795 9.308 52.4545 9.152 53.4295 8.996C54.2875 8.866 54.6775 8.697 54.6775 8.125C54.6775 7.592 54.1705 7.254 53.3515 7.254C52.6235 7.254 52.0905 7.67 51.9345 8.333H50.5045ZM51.6745 11.115C51.6745 11.648 52.1295 12.038 52.9225 12.038C53.8195 12.038 54.7035 11.479 54.7035 9.88V9.178C54.5605 9.555 54.2095 9.88 53.0655 10.101C52.1425 10.27 51.6745 10.556 51.6745 11.115Z" fill="#181818"/>
</svg>
