<svg width="88" height="88" viewBox="0 0 88 88" fill="none" xmlns="http://www.w3.org/2000/svg">
<g clip-path="url(#clip0_6_11741)">
<g clip-path="url(#clip1_6_11741)">
<rect width="88" height="88" fill="#0E0E0E"/>
<path opacity="0.3" d="M60.5 59.2308C60.5 62.9693 57.4693 66 53.7308 66L34.2692 66C30.5307 66 27.5 62.9693 27.5 59.2308L27.5 57.75L60.5 57.75L60.5 59.2308Z" fill="url(#paint0_linear_6_11741)"/>
<rect y="45.375" width="88" height="24.75" fill="#2B2B2B"/>
<rect width="88" height="17.875" transform="matrix(1 0 0 -1 0 88)" fill="black"/>
<rect x="60.6692" y="60.6692" width="33.3385" height="5.83846" rx="2.91923" transform="rotate(-180 60.6692 60.6692)" fill="black" stroke="url(#paint1_linear_6_11741)" stroke-width="0.338462"/>
<g filter="url(#filter0_d_6_11741)">
<rect x="40.208" y="11.8218" width="33" height="38.5" rx="5.5" transform="rotate(32 40.208 11.8218)" fill="url(#paint2_linear_6_11741)" shape-rendering="crispEdges"/>
</g>
<rect width="88" height="88" fill="url(#paint3_radial_6_11741)" fill-opacity="0.2"/>
</g>
</g>
<defs>
<filter id="filter0_d_6_11741" x="-7.69385" y="-15.6782" width="103.387" height="105.137" filterUnits="userSpaceOnUse" color-interpolation-filters="sRGB">
<feFlood flood-opacity="0" result="BackgroundImageFix"/>
<feColorMatrix in="SourceAlpha" type="matrix" values="0 0 0 0 0 0 0 0 0 0 0 0 0 0 0 0 0 0 127 0" result="hardAlpha"/>
<feOffset dy="4.4"/>
<feGaussianBlur stdDeviation="8.8"/>
<feComposite in2="hardAlpha" operator="out"/>
<feColorMatrix type="matrix" values="0 0 0 0 0 0 0 0 0 0 0 0 0 0 0 0 0 0 0.25 0"/>
<feBlend mode="normal" in2="BackgroundImageFix" result="effect1_dropShadow_6_11741"/>
<feBlend mode="normal" in="SourceGraphic" in2="effect1_dropShadow_6_11741" result="shape"/>
</filter>
<linearGradient id="paint0_linear_6_11741" x1="44" y1="66" x2="44" y2="59.8125" gradientUnits="userSpaceOnUse">
<stop stop-color="white" stop-opacity="0"/>
<stop offset="1" stop-color="white"/>
</linearGradient>
<linearGradient id="paint1_linear_6_11741" x1="77" y1="60.5" x2="77" y2="66" gradientUnits="userSpaceOnUse">
<stop stop-opacity="0"/>
<stop offset="1" stop-color="white" stop-opacity="0.4"/>
</linearGradient>
<linearGradient id="paint2_linear_6_11741" x1="56.708" y1="11.8218" x2="56.708" y2="50.3218" gradientUnits="userSpaceOnUse">
<stop stop-color="white"/>
<stop offset="1" stop-color="white" stop-opacity="0.64"/>
</linearGradient>
<radialGradient id="paint3_radial_6_11741" cx="0" cy="0" r="1" gradientUnits="userSpaceOnUse" gradientTransform="translate(14.8824 9.70588) rotate(51.561) scale(99.9579 99.5269)">
<stop stop-color="white"/>
<stop offset="0.639521" stop-color="white" stop-opacity="0"/>
</radialGradient>
<clipPath id="clip0_6_11741">
<rect width="88" height="88" rx="26" fill="white"/>
</clipPath>
<clipPath id="clip1_6_11741">
<rect width="88" height="88" fill="white"/>
</clipPath>
</defs>
</svg>
