<svg width="76" height="20" viewBox="0 0 76 20" fill="none" xmlns="http://www.w3.org/2000/svg">
<g clip-path="url(#clip0_527_13888)">
<path d="M9.54679 19.0579C7.82115 19.0579 6.22559 18.6341 4.76277 17.7838C3.29996 16.9362 2.1398 15.7859 1.28494 14.3355C0.427429 12.8824 0 11.303 0 9.59204C0 7.88103 0.427429 6.29901 1.28494 4.8486C2.1398 3.39819 3.29996 2.24787 4.76277 1.40026C6.22559 0.550024 7.82115 0.126221 9.54679 0.126221C11.2724 0.126221 12.868 0.550024 14.3308 1.40026C15.7936 2.2505 16.9538 3.39819 17.8086 4.8486C18.6635 6.29901 19.0936 7.88103 19.0936 9.59204C19.0936 11.303 18.6661 12.8851 17.8086 14.3355C16.9538 15.7859 15.7936 16.9362 14.3308 17.7838C12.868 18.6314 11.2724 19.0579 9.54679 19.0579ZM0.80707 10.5976V8.62598H18.3051V10.5976H0.80707ZM9.54679 17.0441C10.9008 17.0441 12.1459 16.7125 13.2848 16.0491C14.4237 15.3858 15.3211 14.4829 15.9768 13.3378C16.6325 12.1954 16.9591 10.945 16.9591 9.58941C16.9591 8.23376 16.6299 6.98604 15.9768 5.84362C15.3211 4.70119 14.4237 3.79831 13.2848 3.13233C12.1459 2.46898 10.9008 2.13731 9.54679 2.13731C8.19282 2.13731 6.9477 2.46898 5.80878 3.13233C4.66986 3.79567 3.77252 4.69856 3.11678 5.84362C2.46103 6.98604 2.13183 8.23639 2.13183 9.58941C2.13183 10.9424 2.45838 12.1928 3.11678 13.3378C3.77252 14.4803 4.66986 15.3831 5.80878 16.0491C6.9477 16.7125 8.19282 17.0441 9.54679 17.0441ZM4.45216 9.73418V9.48675C4.45216 8.51542 4.68578 7.63623 5.15569 6.84916C5.6256 6.0621 6.284 5.4435 7.13354 4.99075C7.98309 4.53799 8.95211 4.31424 10.0432 4.31424H16.4414L17.2697 6.24373H10.0831C9.03441 6.24373 8.18751 6.54908 7.5477 7.15714C6.90523 7.76521 6.58399 8.54174 6.58399 9.48675V9.73418C6.58399 10.6923 6.90523 11.4715 7.5477 12.0743C8.19017 12.6771 9.03441 12.9772 10.0831 12.9772H17.2697L16.4414 14.9067H10.0432C8.95211 14.9067 7.98309 14.6803 7.13354 14.2302C6.284 13.7774 5.6256 13.1588 5.15569 12.3718C4.68578 11.5847 4.45216 10.7055 4.45216 9.73418Z" fill="#181818"/>
<path d="M24.8043 13.4308L22.0911 4.31507H24.6795L27.2255 13.7388H26.6255L28.7175 5.7102C28.8423 5.23111 29.0786 4.85206 29.4317 4.5704C29.7848 4.28874 30.2016 4.14923 30.6848 4.14923C31.1679 4.14923 31.606 4.28874 31.9591 4.5704C32.3122 4.85206 32.5485 5.23111 32.6732 5.7102L34.7865 13.7388H34.2077L36.7139 4.31507H39.2811L36.5891 13.4308C36.2573 14.5522 35.575 15.1155 34.5396 15.1155C33.5042 15.1155 32.7794 14.5548 32.4901 13.4308L30.4193 5.40221H30.9582L28.8662 13.4308C28.7282 13.952 28.4972 14.3626 28.1733 14.6627C27.8494 14.9628 27.4114 15.1155 26.8591 15.1155C25.8105 15.1155 25.1255 14.5548 24.8096 13.4308H24.8043Z" fill="#181818"/>
<path d="M42.4191 14.4491C41.543 13.9489 40.8554 13.275 40.3589 12.4274C39.8625 11.5798 39.6129 10.6401 39.6129 9.61349C39.6129 8.58689 39.8625 7.64978 40.3589 6.79954C40.8554 5.95193 41.543 5.27806 42.4191 4.77792C43.2952 4.27778 44.2722 4.02771 45.35 4.02771C46.4279 4.02771 47.4234 4.27778 48.2995 4.77792C49.1756 5.27806 49.8632 5.95193 50.3597 6.79954C50.8561 7.64978 51.1057 8.58689 51.1057 9.61349C51.1057 10.6401 50.8561 11.5772 50.3597 12.4274C49.8632 13.275 49.1756 13.9515 48.2995 14.4491C47.4234 14.9492 46.4385 15.1993 45.35 15.1993C44.2615 15.1993 43.2952 14.9492 42.4191 14.4491ZM47.0571 12.5696C47.5482 12.2695 47.9305 11.8589 48.2066 11.3377C48.4827 10.8165 48.6208 10.2426 48.6208 9.61349C48.6208 8.98437 48.4827 8.39209 48.2066 7.87879C47.9305 7.36549 47.5482 6.95748 47.0571 6.6574C46.5659 6.35731 46.0031 6.20464 45.3686 6.20464C44.7341 6.20464 44.1713 6.35468 43.6801 6.6574C43.189 6.95748 42.8067 7.36812 42.5306 7.88932C42.2545 8.41052 42.1164 8.98437 42.1164 9.61349C42.1164 10.2426 42.2545 10.8349 42.5306 11.3482C42.8067 11.8615 43.189 12.2695 43.6801 12.5696C44.1713 12.8697 44.7314 13.0223 45.3686 13.0223C46.0058 13.0223 46.5659 12.8723 47.0571 12.5696Z" fill="#181818"/>
<path d="M52.5154 4.31507H54.9579V7.33434L54.7721 7.0869C54.9367 6.1419 55.3588 5.42064 56.0358 4.9205C56.7127 4.42036 57.5118 4.17029 58.4384 4.17029H58.5207V6.61308H58.4596C57.3419 6.62624 56.4818 6.91053 55.8818 7.46595C55.2818 8.02137 54.9818 8.92689 54.9818 10.1851V14.9075H52.5181V4.31507H52.5154Z" fill="#181818"/>
<path d="M60.9417 14.1412C60.3204 13.5858 60.0098 12.7224 60.0098 11.5431V0.250488H62.4735V11.2352C62.4735 11.7958 62.5877 12.2117 62.816 12.4776C63.0443 12.7435 63.4399 12.8856 64.008 12.8988V14.973H63.7585C62.5027 14.973 61.5629 14.6967 60.9417 14.1412Z" fill="#181818"/>
<path d="M66.898 14.4782C66.0777 13.9991 65.4405 13.3357 64.9918 12.4855C64.5432 11.6379 64.3175 10.6797 64.3175 9.61101C64.3175 8.54229 64.5458 7.60255 64.9998 6.74705C65.4564 5.89155 66.0936 5.22557 66.9139 4.74649C67.7343 4.26741 68.6767 4.02786 69.7413 4.02786C70.7502 4.02786 71.621 4.27794 72.3617 4.77808C73.0997 5.27822 73.559 5.92577 73.7395 6.71809L73.2643 6.63649V0.250488H75.728V14.9099H73.2643V12.2828L73.7209 12.5092C73.6094 13.0146 73.3678 13.4779 72.9962 13.8964C72.6245 14.315 72.1546 14.6361 71.5891 14.8625C71.0236 15.0889 70.4077 15.2021 69.7466 15.2021C68.6688 15.2021 67.721 14.9625 66.9007 14.4834L66.898 14.4782ZM71.7537 12.6092C72.2502 12.3091 72.6378 11.8932 72.9139 11.3668C73.19 10.8403 73.328 10.2559 73.328 9.61101C73.328 8.96609 73.19 8.38172 72.9139 7.85526C72.6378 7.32879 72.2502 6.91552 71.7537 6.6128C71.2572 6.31272 70.6838 6.16004 70.036 6.16004C69.3882 6.16004 68.8201 6.31008 68.3369 6.6128C67.8537 6.91289 67.4794 7.32879 67.2192 7.85526C66.9564 8.38172 66.8263 8.96873 66.8263 9.61101C66.8263 10.2533 66.9564 10.8403 67.2192 11.3668C67.4821 11.8932 67.8537 12.3091 68.3369 12.6092C68.8201 12.9093 69.3856 13.062 70.036 13.062C70.6865 13.062 71.2572 12.9119 71.7537 12.6092Z" fill="#181818"/>
</g>
<defs>
<clipPath id="clip0_527_13888">
<rect width="75.7265" height="18.9316" fill="white" transform="translate(0 0.126221)"/>
</clipPath>
</defs>
</svg>
